<?xml version="1.0" encoding="utf-8"?>
<svg viewBox="-254.879 -296.975 1129.727 1100" xmlns="http://www.w3.org/2000/svg">
  <ellipse style="stroke: rgb(0, 0, 0); fill: rgba(255, 255, 255, 0); stroke-width: 45px;" cx="311.682" cy="259.319" rx="500" ry="500"/>
  <path d="M 545.393 355.333 L 433.393 307.333 C 423.564 303.144 412.15 305.957 405.393 314.233 L 355.793 374.833 C 277.951 338.131 215.305 275.486 178.603 197.643 L 239.203 148.043 C 247.497 141.297 250.313 129.87 246.103 120.043 L 198.103 8.043 C 193.464 -2.593 181.918 -8.429 170.603 -5.857 L 66.603 18.143 C 55.713 20.658 48.001 30.357 48.003 41.533 C 48.003 298.033 255.903 505.533 512.003 505.533 C 523.183 505.54 532.888 497.827 535.403 486.933 L 559.403 382.933 C 561.958 371.563 556.079 359.981 545.393 355.333 Z" style="fill: rgb(0, 70, 190);"/>
</svg>